%TF.GenerationSoftware,KiCad,Pcbnew,(5.1.8)-1*%
%TF.CreationDate,2020-12-30T23:34:54-06:00*%
%TF.ProjectId,Breakout_555,42726561-6b6f-4757-945f-3535352e6b69,rev?*%
%TF.SameCoordinates,Original*%
%TF.FileFunction,Copper,L2,Bot*%
%TF.FilePolarity,Positive*%
%FSLAX46Y46*%
G04 Gerber Fmt 4.6, Leading zero omitted, Abs format (unit mm)*
G04 Created by KiCad (PCBNEW (5.1.8)-1) date 2020-12-30 23:34:54*
%MOMM*%
%LPD*%
G01*
G04 APERTURE LIST*
%TA.AperFunction,ComponentPad*%
%ADD10R,1.700000X1.700000*%
%TD*%
%TA.AperFunction,ComponentPad*%
%ADD11O,1.700000X1.700000*%
%TD*%
%TA.AperFunction,ComponentPad*%
%ADD12R,1.600000X1.600000*%
%TD*%
%TA.AperFunction,ComponentPad*%
%ADD13O,1.600000X1.600000*%
%TD*%
%TA.AperFunction,ViaPad*%
%ADD14C,0.800000*%
%TD*%
%TA.AperFunction,Conductor*%
%ADD15C,0.254000*%
%TD*%
%TA.AperFunction,Conductor*%
%ADD16C,0.100000*%
%TD*%
G04 APERTURE END LIST*
D10*
%TO.P,BT1,1*%
%TO.N,+9V*%
X115570000Y-90170000D03*
D11*
%TO.P,BT1,2*%
%TO.N,GND*%
X115570000Y-92710000D03*
%TD*%
D12*
%TO.P,U1,1*%
%TO.N,GND*%
X123190000Y-95250000D03*
D13*
%TO.P,U1,5*%
%TO.N,Net-(C2-Pad1)*%
X130810000Y-87630000D03*
%TO.P,U1,2*%
%TO.N,/trig_thrs*%
X125730000Y-95250000D03*
%TO.P,U1,6*%
X128270000Y-87630000D03*
%TO.P,U1,3*%
%TO.N,/clk*%
X128270000Y-95250000D03*
%TO.P,U1,7*%
%TO.N,/dis*%
X125730000Y-87630000D03*
%TO.P,U1,4*%
%TO.N,+9V*%
X130810000Y-95250000D03*
%TO.P,U1,8*%
X123190000Y-87630000D03*
%TD*%
D10*
%TO.P,J1,1*%
%TO.N,/clk*%
X142240000Y-90170000D03*
D11*
%TO.P,J1,2*%
%TO.N,GND*%
X142240000Y-92710000D03*
%TD*%
D14*
%TO.N,GND*%
X114300000Y-83185000D03*
X118745000Y-83185000D03*
X116840000Y-83185000D03*
X114300000Y-85090000D03*
X116840000Y-85090000D03*
X115570000Y-95885000D03*
X115570000Y-97790000D03*
X142240000Y-95250000D03*
X139700000Y-95250000D03*
X137160000Y-95250000D03*
X134620000Y-95250000D03*
X133350000Y-97155000D03*
X133350000Y-99060000D03*
X130810000Y-98425000D03*
X141605000Y-84455000D03*
X143510000Y-82550000D03*
X120015000Y-85725000D03*
X123190000Y-92710000D03*
%TD*%
D15*
%TO.N,GND*%
X144018000Y-100838000D02*
X113157000Y-100838000D01*
X113157000Y-96050000D01*
X121751928Y-96050000D01*
X121764188Y-96174482D01*
X121800498Y-96294180D01*
X121859463Y-96404494D01*
X121938815Y-96501185D01*
X122035506Y-96580537D01*
X122145820Y-96639502D01*
X122265518Y-96675812D01*
X122390000Y-96688072D01*
X122904250Y-96685000D01*
X123063000Y-96526250D01*
X123063000Y-95377000D01*
X121913750Y-95377000D01*
X121755000Y-95535750D01*
X121751928Y-96050000D01*
X113157000Y-96050000D01*
X113157000Y-94450000D01*
X121751928Y-94450000D01*
X121755000Y-94964250D01*
X121913750Y-95123000D01*
X123063000Y-95123000D01*
X123063000Y-93973750D01*
X123317000Y-93973750D01*
X123317000Y-95123000D01*
X123337000Y-95123000D01*
X123337000Y-95377000D01*
X123317000Y-95377000D01*
X123317000Y-96526250D01*
X123475750Y-96685000D01*
X123990000Y-96688072D01*
X124114482Y-96675812D01*
X124234180Y-96639502D01*
X124344494Y-96580537D01*
X124441185Y-96501185D01*
X124520537Y-96404494D01*
X124579502Y-96294180D01*
X124615812Y-96174482D01*
X124616643Y-96166039D01*
X124815241Y-96364637D01*
X125050273Y-96521680D01*
X125311426Y-96629853D01*
X125588665Y-96685000D01*
X125871335Y-96685000D01*
X126148574Y-96629853D01*
X126409727Y-96521680D01*
X126644759Y-96364637D01*
X126844637Y-96164759D01*
X127000000Y-95932241D01*
X127155363Y-96164759D01*
X127355241Y-96364637D01*
X127590273Y-96521680D01*
X127851426Y-96629853D01*
X128128665Y-96685000D01*
X128411335Y-96685000D01*
X128688574Y-96629853D01*
X128949727Y-96521680D01*
X129184759Y-96364637D01*
X129384637Y-96164759D01*
X129540000Y-95932241D01*
X129695363Y-96164759D01*
X129895241Y-96364637D01*
X130130273Y-96521680D01*
X130391426Y-96629853D01*
X130668665Y-96685000D01*
X130951335Y-96685000D01*
X131228574Y-96629853D01*
X131489727Y-96521680D01*
X131724759Y-96364637D01*
X131924637Y-96164759D01*
X132081680Y-95929727D01*
X132189853Y-95668574D01*
X132245000Y-95391335D01*
X132245000Y-95108665D01*
X132189853Y-94831426D01*
X132081680Y-94570273D01*
X131924637Y-94335241D01*
X131724759Y-94135363D01*
X131489727Y-93978320D01*
X131228574Y-93870147D01*
X130951335Y-93815000D01*
X130668665Y-93815000D01*
X130391426Y-93870147D01*
X130130273Y-93978320D01*
X129895241Y-94135363D01*
X129695363Y-94335241D01*
X129540000Y-94567759D01*
X129384637Y-94335241D01*
X129184759Y-94135363D01*
X128949727Y-93978320D01*
X128688574Y-93870147D01*
X128411335Y-93815000D01*
X128128665Y-93815000D01*
X127851426Y-93870147D01*
X127590273Y-93978320D01*
X127355241Y-94135363D01*
X127155363Y-94335241D01*
X127000000Y-94567759D01*
X126844637Y-94335241D01*
X126644759Y-94135363D01*
X126409727Y-93978320D01*
X126148574Y-93870147D01*
X125871335Y-93815000D01*
X125588665Y-93815000D01*
X125311426Y-93870147D01*
X125050273Y-93978320D01*
X124815241Y-94135363D01*
X124616643Y-94333961D01*
X124615812Y-94325518D01*
X124579502Y-94205820D01*
X124520537Y-94095506D01*
X124441185Y-93998815D01*
X124344494Y-93919463D01*
X124234180Y-93860498D01*
X124114482Y-93824188D01*
X123990000Y-93811928D01*
X123475750Y-93815000D01*
X123317000Y-93973750D01*
X123063000Y-93973750D01*
X122904250Y-93815000D01*
X122390000Y-93811928D01*
X122265518Y-93824188D01*
X122145820Y-93860498D01*
X122035506Y-93919463D01*
X121938815Y-93998815D01*
X121859463Y-94095506D01*
X121800498Y-94205820D01*
X121764188Y-94325518D01*
X121751928Y-94450000D01*
X113157000Y-94450000D01*
X113157000Y-93066890D01*
X114128524Y-93066890D01*
X114173175Y-93214099D01*
X114298359Y-93476920D01*
X114472412Y-93710269D01*
X114688645Y-93905178D01*
X114938748Y-94054157D01*
X115213109Y-94151481D01*
X115443000Y-94030814D01*
X115443000Y-92837000D01*
X115697000Y-92837000D01*
X115697000Y-94030814D01*
X115926891Y-94151481D01*
X116201252Y-94054157D01*
X116451355Y-93905178D01*
X116667588Y-93710269D01*
X116841641Y-93476920D01*
X116966825Y-93214099D01*
X117011476Y-93066890D01*
X140798524Y-93066890D01*
X140843175Y-93214099D01*
X140968359Y-93476920D01*
X141142412Y-93710269D01*
X141358645Y-93905178D01*
X141608748Y-94054157D01*
X141883109Y-94151481D01*
X142113000Y-94030814D01*
X142113000Y-92837000D01*
X142367000Y-92837000D01*
X142367000Y-94030814D01*
X142596891Y-94151481D01*
X142871252Y-94054157D01*
X143121355Y-93905178D01*
X143337588Y-93710269D01*
X143511641Y-93476920D01*
X143636825Y-93214099D01*
X143681476Y-93066890D01*
X143560155Y-92837000D01*
X142367000Y-92837000D01*
X142113000Y-92837000D01*
X140919845Y-92837000D01*
X140798524Y-93066890D01*
X117011476Y-93066890D01*
X116890155Y-92837000D01*
X115697000Y-92837000D01*
X115443000Y-92837000D01*
X114249845Y-92837000D01*
X114128524Y-93066890D01*
X113157000Y-93066890D01*
X113157000Y-89320000D01*
X114081928Y-89320000D01*
X114081928Y-91020000D01*
X114094188Y-91144482D01*
X114130498Y-91264180D01*
X114189463Y-91374494D01*
X114268815Y-91471185D01*
X114365506Y-91550537D01*
X114475820Y-91609502D01*
X114556466Y-91633966D01*
X114472412Y-91709731D01*
X114298359Y-91943080D01*
X114173175Y-92205901D01*
X114128524Y-92353110D01*
X114249845Y-92583000D01*
X115443000Y-92583000D01*
X115443000Y-92563000D01*
X115697000Y-92563000D01*
X115697000Y-92583000D01*
X116890155Y-92583000D01*
X117011476Y-92353110D01*
X116966825Y-92205901D01*
X116841641Y-91943080D01*
X116667588Y-91709731D01*
X116583534Y-91633966D01*
X116664180Y-91609502D01*
X116774494Y-91550537D01*
X116871185Y-91471185D01*
X116950537Y-91374494D01*
X117009502Y-91264180D01*
X117045812Y-91144482D01*
X117058072Y-91020000D01*
X117058072Y-89320000D01*
X140751928Y-89320000D01*
X140751928Y-91020000D01*
X140764188Y-91144482D01*
X140800498Y-91264180D01*
X140859463Y-91374494D01*
X140938815Y-91471185D01*
X141035506Y-91550537D01*
X141145820Y-91609502D01*
X141226466Y-91633966D01*
X141142412Y-91709731D01*
X140968359Y-91943080D01*
X140843175Y-92205901D01*
X140798524Y-92353110D01*
X140919845Y-92583000D01*
X142113000Y-92583000D01*
X142113000Y-92563000D01*
X142367000Y-92563000D01*
X142367000Y-92583000D01*
X143560155Y-92583000D01*
X143681476Y-92353110D01*
X143636825Y-92205901D01*
X143511641Y-91943080D01*
X143337588Y-91709731D01*
X143253534Y-91633966D01*
X143334180Y-91609502D01*
X143444494Y-91550537D01*
X143541185Y-91471185D01*
X143620537Y-91374494D01*
X143679502Y-91264180D01*
X143715812Y-91144482D01*
X143728072Y-91020000D01*
X143728072Y-89320000D01*
X143715812Y-89195518D01*
X143679502Y-89075820D01*
X143620537Y-88965506D01*
X143541185Y-88868815D01*
X143444494Y-88789463D01*
X143334180Y-88730498D01*
X143214482Y-88694188D01*
X143090000Y-88681928D01*
X141390000Y-88681928D01*
X141265518Y-88694188D01*
X141145820Y-88730498D01*
X141035506Y-88789463D01*
X140938815Y-88868815D01*
X140859463Y-88965506D01*
X140800498Y-89075820D01*
X140764188Y-89195518D01*
X140751928Y-89320000D01*
X117058072Y-89320000D01*
X117045812Y-89195518D01*
X117009502Y-89075820D01*
X116950537Y-88965506D01*
X116871185Y-88868815D01*
X116774494Y-88789463D01*
X116664180Y-88730498D01*
X116544482Y-88694188D01*
X116420000Y-88681928D01*
X114720000Y-88681928D01*
X114595518Y-88694188D01*
X114475820Y-88730498D01*
X114365506Y-88789463D01*
X114268815Y-88868815D01*
X114189463Y-88965506D01*
X114130498Y-89075820D01*
X114094188Y-89195518D01*
X114081928Y-89320000D01*
X113157000Y-89320000D01*
X113157000Y-87488665D01*
X121755000Y-87488665D01*
X121755000Y-87771335D01*
X121810147Y-88048574D01*
X121918320Y-88309727D01*
X122075363Y-88544759D01*
X122275241Y-88744637D01*
X122510273Y-88901680D01*
X122771426Y-89009853D01*
X123048665Y-89065000D01*
X123331335Y-89065000D01*
X123608574Y-89009853D01*
X123869727Y-88901680D01*
X124104759Y-88744637D01*
X124304637Y-88544759D01*
X124460000Y-88312241D01*
X124615363Y-88544759D01*
X124815241Y-88744637D01*
X125050273Y-88901680D01*
X125311426Y-89009853D01*
X125588665Y-89065000D01*
X125871335Y-89065000D01*
X126148574Y-89009853D01*
X126409727Y-88901680D01*
X126644759Y-88744637D01*
X126844637Y-88544759D01*
X127000000Y-88312241D01*
X127155363Y-88544759D01*
X127355241Y-88744637D01*
X127590273Y-88901680D01*
X127851426Y-89009853D01*
X128128665Y-89065000D01*
X128411335Y-89065000D01*
X128688574Y-89009853D01*
X128949727Y-88901680D01*
X129184759Y-88744637D01*
X129384637Y-88544759D01*
X129540000Y-88312241D01*
X129695363Y-88544759D01*
X129895241Y-88744637D01*
X130130273Y-88901680D01*
X130391426Y-89009853D01*
X130668665Y-89065000D01*
X130951335Y-89065000D01*
X131228574Y-89009853D01*
X131489727Y-88901680D01*
X131724759Y-88744637D01*
X131924637Y-88544759D01*
X132081680Y-88309727D01*
X132189853Y-88048574D01*
X132245000Y-87771335D01*
X132245000Y-87488665D01*
X132189853Y-87211426D01*
X132081680Y-86950273D01*
X131924637Y-86715241D01*
X131724759Y-86515363D01*
X131489727Y-86358320D01*
X131228574Y-86250147D01*
X130951335Y-86195000D01*
X130668665Y-86195000D01*
X130391426Y-86250147D01*
X130130273Y-86358320D01*
X129895241Y-86515363D01*
X129695363Y-86715241D01*
X129540000Y-86947759D01*
X129384637Y-86715241D01*
X129184759Y-86515363D01*
X128949727Y-86358320D01*
X128688574Y-86250147D01*
X128411335Y-86195000D01*
X128128665Y-86195000D01*
X127851426Y-86250147D01*
X127590273Y-86358320D01*
X127355241Y-86515363D01*
X127155363Y-86715241D01*
X127000000Y-86947759D01*
X126844637Y-86715241D01*
X126644759Y-86515363D01*
X126409727Y-86358320D01*
X126148574Y-86250147D01*
X125871335Y-86195000D01*
X125588665Y-86195000D01*
X125311426Y-86250147D01*
X125050273Y-86358320D01*
X124815241Y-86515363D01*
X124615363Y-86715241D01*
X124460000Y-86947759D01*
X124304637Y-86715241D01*
X124104759Y-86515363D01*
X123869727Y-86358320D01*
X123608574Y-86250147D01*
X123331335Y-86195000D01*
X123048665Y-86195000D01*
X122771426Y-86250147D01*
X122510273Y-86358320D01*
X122275241Y-86515363D01*
X122075363Y-86715241D01*
X121918320Y-86950273D01*
X121810147Y-87211426D01*
X121755000Y-87488665D01*
X113157000Y-87488665D01*
X113157000Y-80772000D01*
X144018000Y-80772000D01*
X144018000Y-100838000D01*
%TA.AperFunction,Conductor*%
D16*
G36*
X144018000Y-100838000D02*
G01*
X113157000Y-100838000D01*
X113157000Y-96050000D01*
X121751928Y-96050000D01*
X121764188Y-96174482D01*
X121800498Y-96294180D01*
X121859463Y-96404494D01*
X121938815Y-96501185D01*
X122035506Y-96580537D01*
X122145820Y-96639502D01*
X122265518Y-96675812D01*
X122390000Y-96688072D01*
X122904250Y-96685000D01*
X123063000Y-96526250D01*
X123063000Y-95377000D01*
X121913750Y-95377000D01*
X121755000Y-95535750D01*
X121751928Y-96050000D01*
X113157000Y-96050000D01*
X113157000Y-94450000D01*
X121751928Y-94450000D01*
X121755000Y-94964250D01*
X121913750Y-95123000D01*
X123063000Y-95123000D01*
X123063000Y-93973750D01*
X123317000Y-93973750D01*
X123317000Y-95123000D01*
X123337000Y-95123000D01*
X123337000Y-95377000D01*
X123317000Y-95377000D01*
X123317000Y-96526250D01*
X123475750Y-96685000D01*
X123990000Y-96688072D01*
X124114482Y-96675812D01*
X124234180Y-96639502D01*
X124344494Y-96580537D01*
X124441185Y-96501185D01*
X124520537Y-96404494D01*
X124579502Y-96294180D01*
X124615812Y-96174482D01*
X124616643Y-96166039D01*
X124815241Y-96364637D01*
X125050273Y-96521680D01*
X125311426Y-96629853D01*
X125588665Y-96685000D01*
X125871335Y-96685000D01*
X126148574Y-96629853D01*
X126409727Y-96521680D01*
X126644759Y-96364637D01*
X126844637Y-96164759D01*
X127000000Y-95932241D01*
X127155363Y-96164759D01*
X127355241Y-96364637D01*
X127590273Y-96521680D01*
X127851426Y-96629853D01*
X128128665Y-96685000D01*
X128411335Y-96685000D01*
X128688574Y-96629853D01*
X128949727Y-96521680D01*
X129184759Y-96364637D01*
X129384637Y-96164759D01*
X129540000Y-95932241D01*
X129695363Y-96164759D01*
X129895241Y-96364637D01*
X130130273Y-96521680D01*
X130391426Y-96629853D01*
X130668665Y-96685000D01*
X130951335Y-96685000D01*
X131228574Y-96629853D01*
X131489727Y-96521680D01*
X131724759Y-96364637D01*
X131924637Y-96164759D01*
X132081680Y-95929727D01*
X132189853Y-95668574D01*
X132245000Y-95391335D01*
X132245000Y-95108665D01*
X132189853Y-94831426D01*
X132081680Y-94570273D01*
X131924637Y-94335241D01*
X131724759Y-94135363D01*
X131489727Y-93978320D01*
X131228574Y-93870147D01*
X130951335Y-93815000D01*
X130668665Y-93815000D01*
X130391426Y-93870147D01*
X130130273Y-93978320D01*
X129895241Y-94135363D01*
X129695363Y-94335241D01*
X129540000Y-94567759D01*
X129384637Y-94335241D01*
X129184759Y-94135363D01*
X128949727Y-93978320D01*
X128688574Y-93870147D01*
X128411335Y-93815000D01*
X128128665Y-93815000D01*
X127851426Y-93870147D01*
X127590273Y-93978320D01*
X127355241Y-94135363D01*
X127155363Y-94335241D01*
X127000000Y-94567759D01*
X126844637Y-94335241D01*
X126644759Y-94135363D01*
X126409727Y-93978320D01*
X126148574Y-93870147D01*
X125871335Y-93815000D01*
X125588665Y-93815000D01*
X125311426Y-93870147D01*
X125050273Y-93978320D01*
X124815241Y-94135363D01*
X124616643Y-94333961D01*
X124615812Y-94325518D01*
X124579502Y-94205820D01*
X124520537Y-94095506D01*
X124441185Y-93998815D01*
X124344494Y-93919463D01*
X124234180Y-93860498D01*
X124114482Y-93824188D01*
X123990000Y-93811928D01*
X123475750Y-93815000D01*
X123317000Y-93973750D01*
X123063000Y-93973750D01*
X122904250Y-93815000D01*
X122390000Y-93811928D01*
X122265518Y-93824188D01*
X122145820Y-93860498D01*
X122035506Y-93919463D01*
X121938815Y-93998815D01*
X121859463Y-94095506D01*
X121800498Y-94205820D01*
X121764188Y-94325518D01*
X121751928Y-94450000D01*
X113157000Y-94450000D01*
X113157000Y-93066890D01*
X114128524Y-93066890D01*
X114173175Y-93214099D01*
X114298359Y-93476920D01*
X114472412Y-93710269D01*
X114688645Y-93905178D01*
X114938748Y-94054157D01*
X115213109Y-94151481D01*
X115443000Y-94030814D01*
X115443000Y-92837000D01*
X115697000Y-92837000D01*
X115697000Y-94030814D01*
X115926891Y-94151481D01*
X116201252Y-94054157D01*
X116451355Y-93905178D01*
X116667588Y-93710269D01*
X116841641Y-93476920D01*
X116966825Y-93214099D01*
X117011476Y-93066890D01*
X140798524Y-93066890D01*
X140843175Y-93214099D01*
X140968359Y-93476920D01*
X141142412Y-93710269D01*
X141358645Y-93905178D01*
X141608748Y-94054157D01*
X141883109Y-94151481D01*
X142113000Y-94030814D01*
X142113000Y-92837000D01*
X142367000Y-92837000D01*
X142367000Y-94030814D01*
X142596891Y-94151481D01*
X142871252Y-94054157D01*
X143121355Y-93905178D01*
X143337588Y-93710269D01*
X143511641Y-93476920D01*
X143636825Y-93214099D01*
X143681476Y-93066890D01*
X143560155Y-92837000D01*
X142367000Y-92837000D01*
X142113000Y-92837000D01*
X140919845Y-92837000D01*
X140798524Y-93066890D01*
X117011476Y-93066890D01*
X116890155Y-92837000D01*
X115697000Y-92837000D01*
X115443000Y-92837000D01*
X114249845Y-92837000D01*
X114128524Y-93066890D01*
X113157000Y-93066890D01*
X113157000Y-89320000D01*
X114081928Y-89320000D01*
X114081928Y-91020000D01*
X114094188Y-91144482D01*
X114130498Y-91264180D01*
X114189463Y-91374494D01*
X114268815Y-91471185D01*
X114365506Y-91550537D01*
X114475820Y-91609502D01*
X114556466Y-91633966D01*
X114472412Y-91709731D01*
X114298359Y-91943080D01*
X114173175Y-92205901D01*
X114128524Y-92353110D01*
X114249845Y-92583000D01*
X115443000Y-92583000D01*
X115443000Y-92563000D01*
X115697000Y-92563000D01*
X115697000Y-92583000D01*
X116890155Y-92583000D01*
X117011476Y-92353110D01*
X116966825Y-92205901D01*
X116841641Y-91943080D01*
X116667588Y-91709731D01*
X116583534Y-91633966D01*
X116664180Y-91609502D01*
X116774494Y-91550537D01*
X116871185Y-91471185D01*
X116950537Y-91374494D01*
X117009502Y-91264180D01*
X117045812Y-91144482D01*
X117058072Y-91020000D01*
X117058072Y-89320000D01*
X140751928Y-89320000D01*
X140751928Y-91020000D01*
X140764188Y-91144482D01*
X140800498Y-91264180D01*
X140859463Y-91374494D01*
X140938815Y-91471185D01*
X141035506Y-91550537D01*
X141145820Y-91609502D01*
X141226466Y-91633966D01*
X141142412Y-91709731D01*
X140968359Y-91943080D01*
X140843175Y-92205901D01*
X140798524Y-92353110D01*
X140919845Y-92583000D01*
X142113000Y-92583000D01*
X142113000Y-92563000D01*
X142367000Y-92563000D01*
X142367000Y-92583000D01*
X143560155Y-92583000D01*
X143681476Y-92353110D01*
X143636825Y-92205901D01*
X143511641Y-91943080D01*
X143337588Y-91709731D01*
X143253534Y-91633966D01*
X143334180Y-91609502D01*
X143444494Y-91550537D01*
X143541185Y-91471185D01*
X143620537Y-91374494D01*
X143679502Y-91264180D01*
X143715812Y-91144482D01*
X143728072Y-91020000D01*
X143728072Y-89320000D01*
X143715812Y-89195518D01*
X143679502Y-89075820D01*
X143620537Y-88965506D01*
X143541185Y-88868815D01*
X143444494Y-88789463D01*
X143334180Y-88730498D01*
X143214482Y-88694188D01*
X143090000Y-88681928D01*
X141390000Y-88681928D01*
X141265518Y-88694188D01*
X141145820Y-88730498D01*
X141035506Y-88789463D01*
X140938815Y-88868815D01*
X140859463Y-88965506D01*
X140800498Y-89075820D01*
X140764188Y-89195518D01*
X140751928Y-89320000D01*
X117058072Y-89320000D01*
X117045812Y-89195518D01*
X117009502Y-89075820D01*
X116950537Y-88965506D01*
X116871185Y-88868815D01*
X116774494Y-88789463D01*
X116664180Y-88730498D01*
X116544482Y-88694188D01*
X116420000Y-88681928D01*
X114720000Y-88681928D01*
X114595518Y-88694188D01*
X114475820Y-88730498D01*
X114365506Y-88789463D01*
X114268815Y-88868815D01*
X114189463Y-88965506D01*
X114130498Y-89075820D01*
X114094188Y-89195518D01*
X114081928Y-89320000D01*
X113157000Y-89320000D01*
X113157000Y-87488665D01*
X121755000Y-87488665D01*
X121755000Y-87771335D01*
X121810147Y-88048574D01*
X121918320Y-88309727D01*
X122075363Y-88544759D01*
X122275241Y-88744637D01*
X122510273Y-88901680D01*
X122771426Y-89009853D01*
X123048665Y-89065000D01*
X123331335Y-89065000D01*
X123608574Y-89009853D01*
X123869727Y-88901680D01*
X124104759Y-88744637D01*
X124304637Y-88544759D01*
X124460000Y-88312241D01*
X124615363Y-88544759D01*
X124815241Y-88744637D01*
X125050273Y-88901680D01*
X125311426Y-89009853D01*
X125588665Y-89065000D01*
X125871335Y-89065000D01*
X126148574Y-89009853D01*
X126409727Y-88901680D01*
X126644759Y-88744637D01*
X126844637Y-88544759D01*
X127000000Y-88312241D01*
X127155363Y-88544759D01*
X127355241Y-88744637D01*
X127590273Y-88901680D01*
X127851426Y-89009853D01*
X128128665Y-89065000D01*
X128411335Y-89065000D01*
X128688574Y-89009853D01*
X128949727Y-88901680D01*
X129184759Y-88744637D01*
X129384637Y-88544759D01*
X129540000Y-88312241D01*
X129695363Y-88544759D01*
X129895241Y-88744637D01*
X130130273Y-88901680D01*
X130391426Y-89009853D01*
X130668665Y-89065000D01*
X130951335Y-89065000D01*
X131228574Y-89009853D01*
X131489727Y-88901680D01*
X131724759Y-88744637D01*
X131924637Y-88544759D01*
X132081680Y-88309727D01*
X132189853Y-88048574D01*
X132245000Y-87771335D01*
X132245000Y-87488665D01*
X132189853Y-87211426D01*
X132081680Y-86950273D01*
X131924637Y-86715241D01*
X131724759Y-86515363D01*
X131489727Y-86358320D01*
X131228574Y-86250147D01*
X130951335Y-86195000D01*
X130668665Y-86195000D01*
X130391426Y-86250147D01*
X130130273Y-86358320D01*
X129895241Y-86515363D01*
X129695363Y-86715241D01*
X129540000Y-86947759D01*
X129384637Y-86715241D01*
X129184759Y-86515363D01*
X128949727Y-86358320D01*
X128688574Y-86250147D01*
X128411335Y-86195000D01*
X128128665Y-86195000D01*
X127851426Y-86250147D01*
X127590273Y-86358320D01*
X127355241Y-86515363D01*
X127155363Y-86715241D01*
X127000000Y-86947759D01*
X126844637Y-86715241D01*
X126644759Y-86515363D01*
X126409727Y-86358320D01*
X126148574Y-86250147D01*
X125871335Y-86195000D01*
X125588665Y-86195000D01*
X125311426Y-86250147D01*
X125050273Y-86358320D01*
X124815241Y-86515363D01*
X124615363Y-86715241D01*
X124460000Y-86947759D01*
X124304637Y-86715241D01*
X124104759Y-86515363D01*
X123869727Y-86358320D01*
X123608574Y-86250147D01*
X123331335Y-86195000D01*
X123048665Y-86195000D01*
X122771426Y-86250147D01*
X122510273Y-86358320D01*
X122275241Y-86515363D01*
X122075363Y-86715241D01*
X121918320Y-86950273D01*
X121810147Y-87211426D01*
X121755000Y-87488665D01*
X113157000Y-87488665D01*
X113157000Y-80772000D01*
X144018000Y-80772000D01*
X144018000Y-100838000D01*
G37*
%TD.AperFunction*%
%TD*%
M02*
