M48
; DRILL file {KiCad (5.1.8)-1} date 12/30/20 23:34:57
; FORMAT={-:-/ absolute / inch / decimal}
; #@! TF.CreationDate,2020-12-30T23:34:57-06:00
; #@! TF.GenerationSoftware,Kicad,Pcbnew,(5.1.8)-1
; #@! TF.FileFunction,Plated,1,2,PTH
FMAT,2
INCH
T1C0.0157
T2C0.0315
T3C0.0394
%
G90
G05
T1
X4.5Y-3.275
X4.5Y-3.35
X4.55Y-3.775
X4.55Y-3.85
X4.6Y-3.275
X4.6Y-3.35
X4.675Y-3.275
X4.725Y-3.375
X4.85Y-3.65
X5.15Y-3.875
X5.25Y-3.825
X5.25Y-3.9
X5.3Y-3.75
X5.4Y-3.75
X5.5Y-3.75
X5.575Y-3.325
X5.6Y-3.75
X5.65Y-3.25
T2
X4.85Y-3.45
X4.85Y-3.75
X4.95Y-3.45
X4.95Y-3.75
X5.05Y-3.45
X5.05Y-3.75
X5.15Y-3.45
X5.15Y-3.75
T3
X5.6Y-3.55
X5.6Y-3.65
X4.55Y-3.55
X4.55Y-3.65
T0
M30
