%TF.GenerationSoftware,KiCad,Pcbnew,(5.1.8)-1*%
%TF.CreationDate,2020-12-30T23:34:54-06:00*%
%TF.ProjectId,Breakout_555,42726561-6b6f-4757-945f-3535352e6b69,rev?*%
%TF.SameCoordinates,Original*%
%TF.FileFunction,Copper,L1,Top*%
%TF.FilePolarity,Positive*%
%FSLAX46Y46*%
G04 Gerber Fmt 4.6, Leading zero omitted, Abs format (unit mm)*
G04 Created by KiCad (PCBNEW (5.1.8)-1) date 2020-12-30 23:34:54*
%MOMM*%
%LPD*%
G01*
G04 APERTURE LIST*
%TA.AperFunction,ComponentPad*%
%ADD10R,1.700000X1.700000*%
%TD*%
%TA.AperFunction,ComponentPad*%
%ADD11O,1.700000X1.700000*%
%TD*%
%TA.AperFunction,ComponentPad*%
%ADD12R,1.600000X1.600000*%
%TD*%
%TA.AperFunction,ComponentPad*%
%ADD13O,1.600000X1.600000*%
%TD*%
%TA.AperFunction,ViaPad*%
%ADD14C,0.800000*%
%TD*%
%TA.AperFunction,Conductor*%
%ADD15C,0.250000*%
%TD*%
%TA.AperFunction,Conductor*%
%ADD16C,0.254000*%
%TD*%
%TA.AperFunction,Conductor*%
%ADD17C,0.100000*%
%TD*%
G04 APERTURE END LIST*
D10*
%TO.P,BT1,1*%
%TO.N,+9V*%
X115570000Y-90170000D03*
D11*
%TO.P,BT1,2*%
%TO.N,GND*%
X115570000Y-92710000D03*
%TD*%
%TO.P,C1,1*%
%TO.N,/trig_thrs*%
%TA.AperFunction,SMDPad,CuDef*%
G36*
G01*
X134935000Y-83200002D02*
X134935000Y-81899998D01*
G75*
G02*
X135184998Y-81650000I249998J0D01*
G01*
X136010002Y-81650000D01*
G75*
G02*
X136260000Y-81899998I0J-249998D01*
G01*
X136260000Y-83200002D01*
G75*
G02*
X136010002Y-83450000I-249998J0D01*
G01*
X135184998Y-83450000D01*
G75*
G02*
X134935000Y-83200002I0J249998D01*
G01*
G37*
%TD.AperFunction*%
%TO.P,C1,2*%
%TO.N,GND*%
%TA.AperFunction,SMDPad,CuDef*%
G36*
G01*
X138060000Y-83200002D02*
X138060000Y-81899998D01*
G75*
G02*
X138309998Y-81650000I249998J0D01*
G01*
X139135002Y-81650000D01*
G75*
G02*
X139385000Y-81899998I0J-249998D01*
G01*
X139385000Y-83200002D01*
G75*
G02*
X139135002Y-83450000I-249998J0D01*
G01*
X138309998Y-83450000D01*
G75*
G02*
X138060000Y-83200002I0J249998D01*
G01*
G37*
%TD.AperFunction*%
%TD*%
%TO.P,C2,1*%
%TO.N,Net-(C2-Pad1)*%
%TA.AperFunction,SMDPad,CuDef*%
G36*
G01*
X135535000Y-88105000D02*
X135535000Y-87155000D01*
G75*
G02*
X135785000Y-86905000I250000J0D01*
G01*
X136460000Y-86905000D01*
G75*
G02*
X136710000Y-87155000I0J-250000D01*
G01*
X136710000Y-88105000D01*
G75*
G02*
X136460000Y-88355000I-250000J0D01*
G01*
X135785000Y-88355000D01*
G75*
G02*
X135535000Y-88105000I0J250000D01*
G01*
G37*
%TD.AperFunction*%
%TO.P,C2,2*%
%TO.N,GND*%
%TA.AperFunction,SMDPad,CuDef*%
G36*
G01*
X137610000Y-88105000D02*
X137610000Y-87155000D01*
G75*
G02*
X137860000Y-86905000I250000J0D01*
G01*
X138535000Y-86905000D01*
G75*
G02*
X138785000Y-87155000I0J-250000D01*
G01*
X138785000Y-88105000D01*
G75*
G02*
X138535000Y-88355000I-250000J0D01*
G01*
X137860000Y-88355000D01*
G75*
G02*
X137610000Y-88105000I0J250000D01*
G01*
G37*
%TD.AperFunction*%
%TD*%
%TO.P,R1,1*%
%TO.N,+9V*%
%TA.AperFunction,SMDPad,CuDef*%
G36*
G01*
X122860000Y-84270001D02*
X122860000Y-83369999D01*
G75*
G02*
X123109999Y-83120000I249999J0D01*
G01*
X123810001Y-83120000D01*
G75*
G02*
X124060000Y-83369999I0J-249999D01*
G01*
X124060000Y-84270001D01*
G75*
G02*
X123810001Y-84520000I-249999J0D01*
G01*
X123109999Y-84520000D01*
G75*
G02*
X122860000Y-84270001I0J249999D01*
G01*
G37*
%TD.AperFunction*%
%TO.P,R1,2*%
%TO.N,/dis*%
%TA.AperFunction,SMDPad,CuDef*%
G36*
G01*
X124860000Y-84270001D02*
X124860000Y-83369999D01*
G75*
G02*
X125109999Y-83120000I249999J0D01*
G01*
X125810001Y-83120000D01*
G75*
G02*
X126060000Y-83369999I0J-249999D01*
G01*
X126060000Y-84270001D01*
G75*
G02*
X125810001Y-84520000I-249999J0D01*
G01*
X125109999Y-84520000D01*
G75*
G02*
X124860000Y-84270001I0J249999D01*
G01*
G37*
%TD.AperFunction*%
%TD*%
%TO.P,R2,1*%
%TO.N,/dis*%
%TA.AperFunction,SMDPad,CuDef*%
G36*
G01*
X127340000Y-84445001D02*
X127340000Y-83194999D01*
G75*
G02*
X127589999Y-82945000I249999J0D01*
G01*
X128390001Y-82945000D01*
G75*
G02*
X128640000Y-83194999I0J-249999D01*
G01*
X128640000Y-84445001D01*
G75*
G02*
X128390001Y-84695000I-249999J0D01*
G01*
X127589999Y-84695000D01*
G75*
G02*
X127340000Y-84445001I0J249999D01*
G01*
G37*
%TD.AperFunction*%
%TO.P,R2,2*%
%TO.N,/trig_thrs*%
%TA.AperFunction,SMDPad,CuDef*%
G36*
G01*
X130440000Y-84445001D02*
X130440000Y-83194999D01*
G75*
G02*
X130689999Y-82945000I249999J0D01*
G01*
X131490001Y-82945000D01*
G75*
G02*
X131740000Y-83194999I0J-249999D01*
G01*
X131740000Y-84445001D01*
G75*
G02*
X131490001Y-84695000I-249999J0D01*
G01*
X130689999Y-84695000D01*
G75*
G02*
X130440000Y-84445001I0J249999D01*
G01*
G37*
%TD.AperFunction*%
%TD*%
D12*
%TO.P,U1,1*%
%TO.N,GND*%
X123190000Y-95250000D03*
D13*
%TO.P,U1,5*%
%TO.N,Net-(C2-Pad1)*%
X130810000Y-87630000D03*
%TO.P,U1,2*%
%TO.N,/trig_thrs*%
X125730000Y-95250000D03*
%TO.P,U1,6*%
X128270000Y-87630000D03*
%TO.P,U1,3*%
%TO.N,/clk*%
X128270000Y-95250000D03*
%TO.P,U1,7*%
%TO.N,/dis*%
X125730000Y-87630000D03*
%TO.P,U1,4*%
%TO.N,+9V*%
X130810000Y-95250000D03*
%TO.P,U1,8*%
X123190000Y-87630000D03*
%TD*%
D10*
%TO.P,J1,1*%
%TO.N,/clk*%
X142240000Y-90170000D03*
D11*
%TO.P,J1,2*%
%TO.N,GND*%
X142240000Y-92710000D03*
%TD*%
D14*
%TO.N,GND*%
X114300000Y-83185000D03*
X118745000Y-83185000D03*
X116840000Y-83185000D03*
X114300000Y-85090000D03*
X116840000Y-85090000D03*
X115570000Y-95885000D03*
X115570000Y-97790000D03*
X142240000Y-95250000D03*
X139700000Y-95250000D03*
X137160000Y-95250000D03*
X134620000Y-95250000D03*
X133350000Y-97155000D03*
X133350000Y-99060000D03*
X130810000Y-98425000D03*
X141605000Y-84455000D03*
X143510000Y-82550000D03*
X120015000Y-85725000D03*
X123190000Y-92710000D03*
%TD*%
D15*
%TO.N,+9V*%
X118110000Y-87630000D02*
X115570000Y-90170000D01*
X123190000Y-87630000D02*
X118110000Y-87630000D01*
X123190000Y-84090000D02*
X123460000Y-83820000D01*
X123190000Y-87630000D02*
X123190000Y-84090000D01*
X115570000Y-90170000D02*
X116840000Y-90170000D01*
X124814998Y-99060000D02*
X127000000Y-99060000D01*
X127000000Y-99060000D02*
X130810000Y-95250000D01*
X116840000Y-90170000D02*
X118110000Y-91440000D01*
X118110000Y-93980000D02*
X118110000Y-91440000D01*
X121920000Y-97790000D02*
X118110000Y-93980000D01*
X123190000Y-99060000D02*
X121920000Y-97790000D01*
X124814998Y-99060000D02*
X123190000Y-99060000D01*
%TO.N,/trig_thrs*%
X125730000Y-90170000D02*
X128270000Y-87630000D01*
X125730000Y-95250000D02*
X125730000Y-90170000D01*
X134327500Y-83820000D02*
X131090000Y-83820000D01*
X131090000Y-84810000D02*
X131090000Y-83820000D01*
X128270000Y-87630000D02*
X131090000Y-84810000D01*
X134327500Y-83820000D02*
X135597500Y-82550000D01*
%TO.N,Net-(C2-Pad1)*%
X131042500Y-87862500D02*
X130810000Y-87630000D01*
X135890000Y-87862500D02*
X131042500Y-87862500D01*
%TO.N,/clk*%
X128270000Y-95250000D02*
X132080000Y-91440000D01*
X140970000Y-91440000D02*
X142240000Y-90170000D01*
X132080000Y-91440000D02*
X140970000Y-91440000D01*
%TO.N,/dis*%
X127990000Y-83820000D02*
X125460000Y-83820000D01*
X125730000Y-84090000D02*
X125460000Y-83820000D01*
X125730000Y-87630000D02*
X125730000Y-84090000D01*
%TD*%
D16*
%TO.N,GND*%
X144018000Y-100838000D02*
X113157000Y-100838000D01*
X113157000Y-93066890D01*
X114128524Y-93066890D01*
X114173175Y-93214099D01*
X114298359Y-93476920D01*
X114472412Y-93710269D01*
X114688645Y-93905178D01*
X114938748Y-94054157D01*
X115213109Y-94151481D01*
X115443000Y-94030814D01*
X115443000Y-92837000D01*
X115697000Y-92837000D01*
X115697000Y-94030814D01*
X115926891Y-94151481D01*
X116201252Y-94054157D01*
X116451355Y-93905178D01*
X116667588Y-93710269D01*
X116841641Y-93476920D01*
X116966825Y-93214099D01*
X117011476Y-93066890D01*
X116890155Y-92837000D01*
X115697000Y-92837000D01*
X115443000Y-92837000D01*
X114249845Y-92837000D01*
X114128524Y-93066890D01*
X113157000Y-93066890D01*
X113157000Y-89320000D01*
X114081928Y-89320000D01*
X114081928Y-91020000D01*
X114094188Y-91144482D01*
X114130498Y-91264180D01*
X114189463Y-91374494D01*
X114268815Y-91471185D01*
X114365506Y-91550537D01*
X114475820Y-91609502D01*
X114556466Y-91633966D01*
X114472412Y-91709731D01*
X114298359Y-91943080D01*
X114173175Y-92205901D01*
X114128524Y-92353110D01*
X114249845Y-92583000D01*
X115443000Y-92583000D01*
X115443000Y-92563000D01*
X115697000Y-92563000D01*
X115697000Y-92583000D01*
X116890155Y-92583000D01*
X117011476Y-92353110D01*
X116966825Y-92205901D01*
X116841641Y-91943080D01*
X116667588Y-91709731D01*
X116583534Y-91633966D01*
X116664180Y-91609502D01*
X116774494Y-91550537D01*
X116871185Y-91471185D01*
X116950537Y-91374494D01*
X116957209Y-91362011D01*
X117350001Y-91754803D01*
X117350000Y-93942677D01*
X117346324Y-93980000D01*
X117350000Y-94017322D01*
X117350000Y-94017332D01*
X117360997Y-94128985D01*
X117404454Y-94272246D01*
X117475026Y-94404276D01*
X117512551Y-94450000D01*
X117569999Y-94520001D01*
X117599003Y-94543804D01*
X121408997Y-98353799D01*
X121409002Y-98353803D01*
X122626201Y-99571003D01*
X122649999Y-99600001D01*
X122765724Y-99694974D01*
X122897753Y-99765546D01*
X123041014Y-99809003D01*
X123152667Y-99820000D01*
X123152676Y-99820000D01*
X123189999Y-99823676D01*
X123227322Y-99820000D01*
X126962678Y-99820000D01*
X127000000Y-99823676D01*
X127037322Y-99820000D01*
X127037333Y-99820000D01*
X127148986Y-99809003D01*
X127292247Y-99765546D01*
X127424276Y-99694974D01*
X127540001Y-99600001D01*
X127563804Y-99570997D01*
X130486114Y-96648688D01*
X130668665Y-96685000D01*
X130951335Y-96685000D01*
X131228574Y-96629853D01*
X131489727Y-96521680D01*
X131724759Y-96364637D01*
X131924637Y-96164759D01*
X132081680Y-95929727D01*
X132189853Y-95668574D01*
X132245000Y-95391335D01*
X132245000Y-95108665D01*
X132189853Y-94831426D01*
X132081680Y-94570273D01*
X131924637Y-94335241D01*
X131724759Y-94135363D01*
X131489727Y-93978320D01*
X131228574Y-93870147D01*
X130951335Y-93815000D01*
X130779802Y-93815000D01*
X131527912Y-93066890D01*
X140798524Y-93066890D01*
X140843175Y-93214099D01*
X140968359Y-93476920D01*
X141142412Y-93710269D01*
X141358645Y-93905178D01*
X141608748Y-94054157D01*
X141883109Y-94151481D01*
X142113000Y-94030814D01*
X142113000Y-92837000D01*
X142367000Y-92837000D01*
X142367000Y-94030814D01*
X142596891Y-94151481D01*
X142871252Y-94054157D01*
X143121355Y-93905178D01*
X143337588Y-93710269D01*
X143511641Y-93476920D01*
X143636825Y-93214099D01*
X143681476Y-93066890D01*
X143560155Y-92837000D01*
X142367000Y-92837000D01*
X142113000Y-92837000D01*
X140919845Y-92837000D01*
X140798524Y-93066890D01*
X131527912Y-93066890D01*
X132394802Y-92200000D01*
X140845986Y-92200000D01*
X140843175Y-92205901D01*
X140798524Y-92353110D01*
X140919845Y-92583000D01*
X142113000Y-92583000D01*
X142113000Y-92563000D01*
X142367000Y-92563000D01*
X142367000Y-92583000D01*
X143560155Y-92583000D01*
X143681476Y-92353110D01*
X143636825Y-92205901D01*
X143511641Y-91943080D01*
X143337588Y-91709731D01*
X143253534Y-91633966D01*
X143334180Y-91609502D01*
X143444494Y-91550537D01*
X143541185Y-91471185D01*
X143620537Y-91374494D01*
X143679502Y-91264180D01*
X143715812Y-91144482D01*
X143728072Y-91020000D01*
X143728072Y-89320000D01*
X143715812Y-89195518D01*
X143679502Y-89075820D01*
X143620537Y-88965506D01*
X143541185Y-88868815D01*
X143444494Y-88789463D01*
X143334180Y-88730498D01*
X143214482Y-88694188D01*
X143090000Y-88681928D01*
X141390000Y-88681928D01*
X141265518Y-88694188D01*
X141145820Y-88730498D01*
X141035506Y-88789463D01*
X140938815Y-88868815D01*
X140859463Y-88965506D01*
X140800498Y-89075820D01*
X140764188Y-89195518D01*
X140751928Y-89320000D01*
X140751928Y-90583271D01*
X140655199Y-90680000D01*
X132117325Y-90680000D01*
X132080000Y-90676324D01*
X132042675Y-90680000D01*
X132042667Y-90680000D01*
X131931014Y-90690997D01*
X131787753Y-90734454D01*
X131655724Y-90805026D01*
X131539999Y-90899999D01*
X131516201Y-90928997D01*
X128593887Y-93851312D01*
X128411335Y-93815000D01*
X128128665Y-93815000D01*
X127851426Y-93870147D01*
X127590273Y-93978320D01*
X127355241Y-94135363D01*
X127155363Y-94335241D01*
X127000000Y-94567759D01*
X126844637Y-94335241D01*
X126644759Y-94135363D01*
X126490000Y-94031957D01*
X126490000Y-90484801D01*
X127946114Y-89028688D01*
X128128665Y-89065000D01*
X128411335Y-89065000D01*
X128688574Y-89009853D01*
X128949727Y-88901680D01*
X129184759Y-88744637D01*
X129384637Y-88544759D01*
X129540000Y-88312241D01*
X129695363Y-88544759D01*
X129895241Y-88744637D01*
X130130273Y-88901680D01*
X130391426Y-89009853D01*
X130668665Y-89065000D01*
X130951335Y-89065000D01*
X131228574Y-89009853D01*
X131489727Y-88901680D01*
X131724759Y-88744637D01*
X131846896Y-88622500D01*
X135066385Y-88622500D01*
X135157038Y-88732962D01*
X135291614Y-88843405D01*
X135445150Y-88925472D01*
X135611746Y-88976008D01*
X135785000Y-88993072D01*
X136460000Y-88993072D01*
X136633254Y-88976008D01*
X136799850Y-88925472D01*
X136953386Y-88843405D01*
X137087962Y-88732962D01*
X137093342Y-88726406D01*
X137158815Y-88806185D01*
X137255506Y-88885537D01*
X137365820Y-88944502D01*
X137485518Y-88980812D01*
X137610000Y-88993072D01*
X137911750Y-88990000D01*
X138070500Y-88831250D01*
X138070500Y-87757000D01*
X138324500Y-87757000D01*
X138324500Y-88831250D01*
X138483250Y-88990000D01*
X138785000Y-88993072D01*
X138909482Y-88980812D01*
X139029180Y-88944502D01*
X139139494Y-88885537D01*
X139236185Y-88806185D01*
X139315537Y-88709494D01*
X139374502Y-88599180D01*
X139410812Y-88479482D01*
X139423072Y-88355000D01*
X139420000Y-87915750D01*
X139261250Y-87757000D01*
X138324500Y-87757000D01*
X138070500Y-87757000D01*
X138050500Y-87757000D01*
X138050500Y-87503000D01*
X138070500Y-87503000D01*
X138070500Y-86428750D01*
X138324500Y-86428750D01*
X138324500Y-87503000D01*
X139261250Y-87503000D01*
X139420000Y-87344250D01*
X139423072Y-86905000D01*
X139410812Y-86780518D01*
X139374502Y-86660820D01*
X139315537Y-86550506D01*
X139236185Y-86453815D01*
X139139494Y-86374463D01*
X139029180Y-86315498D01*
X138909482Y-86279188D01*
X138785000Y-86266928D01*
X138483250Y-86270000D01*
X138324500Y-86428750D01*
X138070500Y-86428750D01*
X137911750Y-86270000D01*
X137610000Y-86266928D01*
X137485518Y-86279188D01*
X137365820Y-86315498D01*
X137255506Y-86374463D01*
X137158815Y-86453815D01*
X137093342Y-86533594D01*
X137087962Y-86527038D01*
X136953386Y-86416595D01*
X136799850Y-86334528D01*
X136633254Y-86283992D01*
X136460000Y-86266928D01*
X135785000Y-86266928D01*
X135611746Y-86283992D01*
X135445150Y-86334528D01*
X135291614Y-86416595D01*
X135157038Y-86527038D01*
X135046595Y-86661614D01*
X134964528Y-86815150D01*
X134913992Y-86981746D01*
X134902099Y-87102500D01*
X132144734Y-87102500D01*
X132081680Y-86950273D01*
X131924637Y-86715241D01*
X131724759Y-86515363D01*
X131489727Y-86358320D01*
X131228574Y-86250147D01*
X130951335Y-86195000D01*
X130779802Y-86195000D01*
X131601004Y-85373798D01*
X131630001Y-85350001D01*
X131657427Y-85316582D01*
X131663255Y-85316008D01*
X131829851Y-85265472D01*
X131983387Y-85183405D01*
X132117962Y-85072962D01*
X132228405Y-84938387D01*
X132310472Y-84784851D01*
X132361008Y-84618255D01*
X132364776Y-84580000D01*
X134290178Y-84580000D01*
X134327500Y-84583676D01*
X134364822Y-84580000D01*
X134364833Y-84580000D01*
X134476486Y-84569003D01*
X134619747Y-84525546D01*
X134751776Y-84454974D01*
X134867501Y-84360001D01*
X134891304Y-84330997D01*
X135138781Y-84083520D01*
X135184998Y-84088072D01*
X136010002Y-84088072D01*
X136183256Y-84071008D01*
X136349852Y-84020472D01*
X136503387Y-83938405D01*
X136637962Y-83827962D01*
X136748405Y-83693387D01*
X136830472Y-83539852D01*
X136857728Y-83450000D01*
X137421928Y-83450000D01*
X137434188Y-83574482D01*
X137470498Y-83694180D01*
X137529463Y-83804494D01*
X137608815Y-83901185D01*
X137705506Y-83980537D01*
X137815820Y-84039502D01*
X137935518Y-84075812D01*
X138060000Y-84088072D01*
X138436750Y-84085000D01*
X138595500Y-83926250D01*
X138595500Y-82677000D01*
X138849500Y-82677000D01*
X138849500Y-83926250D01*
X139008250Y-84085000D01*
X139385000Y-84088072D01*
X139509482Y-84075812D01*
X139629180Y-84039502D01*
X139739494Y-83980537D01*
X139836185Y-83901185D01*
X139915537Y-83804494D01*
X139974502Y-83694180D01*
X140010812Y-83574482D01*
X140023072Y-83450000D01*
X140020000Y-82835750D01*
X139861250Y-82677000D01*
X138849500Y-82677000D01*
X138595500Y-82677000D01*
X137583750Y-82677000D01*
X137425000Y-82835750D01*
X137421928Y-83450000D01*
X136857728Y-83450000D01*
X136881008Y-83373256D01*
X136898072Y-83200002D01*
X136898072Y-81899998D01*
X136881008Y-81726744D01*
X136857729Y-81650000D01*
X137421928Y-81650000D01*
X137425000Y-82264250D01*
X137583750Y-82423000D01*
X138595500Y-82423000D01*
X138595500Y-81173750D01*
X138849500Y-81173750D01*
X138849500Y-82423000D01*
X139861250Y-82423000D01*
X140020000Y-82264250D01*
X140023072Y-81650000D01*
X140010812Y-81525518D01*
X139974502Y-81405820D01*
X139915537Y-81295506D01*
X139836185Y-81198815D01*
X139739494Y-81119463D01*
X139629180Y-81060498D01*
X139509482Y-81024188D01*
X139385000Y-81011928D01*
X139008250Y-81015000D01*
X138849500Y-81173750D01*
X138595500Y-81173750D01*
X138436750Y-81015000D01*
X138060000Y-81011928D01*
X137935518Y-81024188D01*
X137815820Y-81060498D01*
X137705506Y-81119463D01*
X137608815Y-81198815D01*
X137529463Y-81295506D01*
X137470498Y-81405820D01*
X137434188Y-81525518D01*
X137421928Y-81650000D01*
X136857729Y-81650000D01*
X136830472Y-81560148D01*
X136748405Y-81406613D01*
X136637962Y-81272038D01*
X136503387Y-81161595D01*
X136349852Y-81079528D01*
X136183256Y-81028992D01*
X136010002Y-81011928D01*
X135184998Y-81011928D01*
X135011744Y-81028992D01*
X134845148Y-81079528D01*
X134691613Y-81161595D01*
X134557038Y-81272038D01*
X134446595Y-81406613D01*
X134364528Y-81560148D01*
X134313992Y-81726744D01*
X134296928Y-81899998D01*
X134296928Y-82775771D01*
X134012699Y-83060000D01*
X132364776Y-83060000D01*
X132361008Y-83021745D01*
X132310472Y-82855149D01*
X132228405Y-82701613D01*
X132117962Y-82567038D01*
X131983387Y-82456595D01*
X131829851Y-82374528D01*
X131663255Y-82323992D01*
X131490001Y-82306928D01*
X130689999Y-82306928D01*
X130516745Y-82323992D01*
X130350149Y-82374528D01*
X130196613Y-82456595D01*
X130062038Y-82567038D01*
X129951595Y-82701613D01*
X129869528Y-82855149D01*
X129818992Y-83021745D01*
X129801928Y-83194999D01*
X129801928Y-84445001D01*
X129818992Y-84618255D01*
X129869528Y-84784851D01*
X129929029Y-84896169D01*
X128593886Y-86231312D01*
X128411335Y-86195000D01*
X128128665Y-86195000D01*
X127851426Y-86250147D01*
X127590273Y-86358320D01*
X127355241Y-86515363D01*
X127155363Y-86715241D01*
X127000000Y-86947759D01*
X126844637Y-86715241D01*
X126644759Y-86515363D01*
X126490000Y-86411957D01*
X126490000Y-84834554D01*
X126548405Y-84763387D01*
X126630472Y-84609851D01*
X126639527Y-84580000D01*
X126715224Y-84580000D01*
X126718992Y-84618255D01*
X126769528Y-84784851D01*
X126851595Y-84938387D01*
X126962038Y-85072962D01*
X127096613Y-85183405D01*
X127250149Y-85265472D01*
X127416745Y-85316008D01*
X127589999Y-85333072D01*
X128390001Y-85333072D01*
X128563255Y-85316008D01*
X128729851Y-85265472D01*
X128883387Y-85183405D01*
X129017962Y-85072962D01*
X129128405Y-84938387D01*
X129210472Y-84784851D01*
X129261008Y-84618255D01*
X129278072Y-84445001D01*
X129278072Y-83194999D01*
X129261008Y-83021745D01*
X129210472Y-82855149D01*
X129128405Y-82701613D01*
X129017962Y-82567038D01*
X128883387Y-82456595D01*
X128729851Y-82374528D01*
X128563255Y-82323992D01*
X128390001Y-82306928D01*
X127589999Y-82306928D01*
X127416745Y-82323992D01*
X127250149Y-82374528D01*
X127096613Y-82456595D01*
X126962038Y-82567038D01*
X126851595Y-82701613D01*
X126769528Y-82855149D01*
X126718992Y-83021745D01*
X126715224Y-83060000D01*
X126639527Y-83060000D01*
X126630472Y-83030149D01*
X126548405Y-82876613D01*
X126437962Y-82742038D01*
X126303387Y-82631595D01*
X126149851Y-82549528D01*
X125983255Y-82498992D01*
X125810001Y-82481928D01*
X125109999Y-82481928D01*
X124936745Y-82498992D01*
X124770149Y-82549528D01*
X124616613Y-82631595D01*
X124482038Y-82742038D01*
X124460000Y-82768891D01*
X124437962Y-82742038D01*
X124303387Y-82631595D01*
X124149851Y-82549528D01*
X123983255Y-82498992D01*
X123810001Y-82481928D01*
X123109999Y-82481928D01*
X122936745Y-82498992D01*
X122770149Y-82549528D01*
X122616613Y-82631595D01*
X122482038Y-82742038D01*
X122371595Y-82876613D01*
X122289528Y-83030149D01*
X122238992Y-83196745D01*
X122221928Y-83369999D01*
X122221928Y-84270001D01*
X122238992Y-84443255D01*
X122289528Y-84609851D01*
X122371595Y-84763387D01*
X122430001Y-84834555D01*
X122430000Y-86411956D01*
X122275241Y-86515363D01*
X122075363Y-86715241D01*
X121971957Y-86870000D01*
X118147322Y-86870000D01*
X118109999Y-86866324D01*
X118072676Y-86870000D01*
X118072667Y-86870000D01*
X117961014Y-86880997D01*
X117817753Y-86924454D01*
X117685724Y-86995026D01*
X117685722Y-86995027D01*
X117685723Y-86995027D01*
X117598996Y-87066201D01*
X117598992Y-87066205D01*
X117569999Y-87089999D01*
X117546205Y-87118992D01*
X115983270Y-88681928D01*
X114720000Y-88681928D01*
X114595518Y-88694188D01*
X114475820Y-88730498D01*
X114365506Y-88789463D01*
X114268815Y-88868815D01*
X114189463Y-88965506D01*
X114130498Y-89075820D01*
X114094188Y-89195518D01*
X114081928Y-89320000D01*
X113157000Y-89320000D01*
X113157000Y-80772000D01*
X144018000Y-80772000D01*
X144018000Y-100838000D01*
%TA.AperFunction,Conductor*%
D17*
G36*
X144018000Y-100838000D02*
G01*
X113157000Y-100838000D01*
X113157000Y-93066890D01*
X114128524Y-93066890D01*
X114173175Y-93214099D01*
X114298359Y-93476920D01*
X114472412Y-93710269D01*
X114688645Y-93905178D01*
X114938748Y-94054157D01*
X115213109Y-94151481D01*
X115443000Y-94030814D01*
X115443000Y-92837000D01*
X115697000Y-92837000D01*
X115697000Y-94030814D01*
X115926891Y-94151481D01*
X116201252Y-94054157D01*
X116451355Y-93905178D01*
X116667588Y-93710269D01*
X116841641Y-93476920D01*
X116966825Y-93214099D01*
X117011476Y-93066890D01*
X116890155Y-92837000D01*
X115697000Y-92837000D01*
X115443000Y-92837000D01*
X114249845Y-92837000D01*
X114128524Y-93066890D01*
X113157000Y-93066890D01*
X113157000Y-89320000D01*
X114081928Y-89320000D01*
X114081928Y-91020000D01*
X114094188Y-91144482D01*
X114130498Y-91264180D01*
X114189463Y-91374494D01*
X114268815Y-91471185D01*
X114365506Y-91550537D01*
X114475820Y-91609502D01*
X114556466Y-91633966D01*
X114472412Y-91709731D01*
X114298359Y-91943080D01*
X114173175Y-92205901D01*
X114128524Y-92353110D01*
X114249845Y-92583000D01*
X115443000Y-92583000D01*
X115443000Y-92563000D01*
X115697000Y-92563000D01*
X115697000Y-92583000D01*
X116890155Y-92583000D01*
X117011476Y-92353110D01*
X116966825Y-92205901D01*
X116841641Y-91943080D01*
X116667588Y-91709731D01*
X116583534Y-91633966D01*
X116664180Y-91609502D01*
X116774494Y-91550537D01*
X116871185Y-91471185D01*
X116950537Y-91374494D01*
X116957209Y-91362011D01*
X117350001Y-91754803D01*
X117350000Y-93942677D01*
X117346324Y-93980000D01*
X117350000Y-94017322D01*
X117350000Y-94017332D01*
X117360997Y-94128985D01*
X117404454Y-94272246D01*
X117475026Y-94404276D01*
X117512551Y-94450000D01*
X117569999Y-94520001D01*
X117599003Y-94543804D01*
X121408997Y-98353799D01*
X121409002Y-98353803D01*
X122626201Y-99571003D01*
X122649999Y-99600001D01*
X122765724Y-99694974D01*
X122897753Y-99765546D01*
X123041014Y-99809003D01*
X123152667Y-99820000D01*
X123152676Y-99820000D01*
X123189999Y-99823676D01*
X123227322Y-99820000D01*
X126962678Y-99820000D01*
X127000000Y-99823676D01*
X127037322Y-99820000D01*
X127037333Y-99820000D01*
X127148986Y-99809003D01*
X127292247Y-99765546D01*
X127424276Y-99694974D01*
X127540001Y-99600001D01*
X127563804Y-99570997D01*
X130486114Y-96648688D01*
X130668665Y-96685000D01*
X130951335Y-96685000D01*
X131228574Y-96629853D01*
X131489727Y-96521680D01*
X131724759Y-96364637D01*
X131924637Y-96164759D01*
X132081680Y-95929727D01*
X132189853Y-95668574D01*
X132245000Y-95391335D01*
X132245000Y-95108665D01*
X132189853Y-94831426D01*
X132081680Y-94570273D01*
X131924637Y-94335241D01*
X131724759Y-94135363D01*
X131489727Y-93978320D01*
X131228574Y-93870147D01*
X130951335Y-93815000D01*
X130779802Y-93815000D01*
X131527912Y-93066890D01*
X140798524Y-93066890D01*
X140843175Y-93214099D01*
X140968359Y-93476920D01*
X141142412Y-93710269D01*
X141358645Y-93905178D01*
X141608748Y-94054157D01*
X141883109Y-94151481D01*
X142113000Y-94030814D01*
X142113000Y-92837000D01*
X142367000Y-92837000D01*
X142367000Y-94030814D01*
X142596891Y-94151481D01*
X142871252Y-94054157D01*
X143121355Y-93905178D01*
X143337588Y-93710269D01*
X143511641Y-93476920D01*
X143636825Y-93214099D01*
X143681476Y-93066890D01*
X143560155Y-92837000D01*
X142367000Y-92837000D01*
X142113000Y-92837000D01*
X140919845Y-92837000D01*
X140798524Y-93066890D01*
X131527912Y-93066890D01*
X132394802Y-92200000D01*
X140845986Y-92200000D01*
X140843175Y-92205901D01*
X140798524Y-92353110D01*
X140919845Y-92583000D01*
X142113000Y-92583000D01*
X142113000Y-92563000D01*
X142367000Y-92563000D01*
X142367000Y-92583000D01*
X143560155Y-92583000D01*
X143681476Y-92353110D01*
X143636825Y-92205901D01*
X143511641Y-91943080D01*
X143337588Y-91709731D01*
X143253534Y-91633966D01*
X143334180Y-91609502D01*
X143444494Y-91550537D01*
X143541185Y-91471185D01*
X143620537Y-91374494D01*
X143679502Y-91264180D01*
X143715812Y-91144482D01*
X143728072Y-91020000D01*
X143728072Y-89320000D01*
X143715812Y-89195518D01*
X143679502Y-89075820D01*
X143620537Y-88965506D01*
X143541185Y-88868815D01*
X143444494Y-88789463D01*
X143334180Y-88730498D01*
X143214482Y-88694188D01*
X143090000Y-88681928D01*
X141390000Y-88681928D01*
X141265518Y-88694188D01*
X141145820Y-88730498D01*
X141035506Y-88789463D01*
X140938815Y-88868815D01*
X140859463Y-88965506D01*
X140800498Y-89075820D01*
X140764188Y-89195518D01*
X140751928Y-89320000D01*
X140751928Y-90583271D01*
X140655199Y-90680000D01*
X132117325Y-90680000D01*
X132080000Y-90676324D01*
X132042675Y-90680000D01*
X132042667Y-90680000D01*
X131931014Y-90690997D01*
X131787753Y-90734454D01*
X131655724Y-90805026D01*
X131539999Y-90899999D01*
X131516201Y-90928997D01*
X128593887Y-93851312D01*
X128411335Y-93815000D01*
X128128665Y-93815000D01*
X127851426Y-93870147D01*
X127590273Y-93978320D01*
X127355241Y-94135363D01*
X127155363Y-94335241D01*
X127000000Y-94567759D01*
X126844637Y-94335241D01*
X126644759Y-94135363D01*
X126490000Y-94031957D01*
X126490000Y-90484801D01*
X127946114Y-89028688D01*
X128128665Y-89065000D01*
X128411335Y-89065000D01*
X128688574Y-89009853D01*
X128949727Y-88901680D01*
X129184759Y-88744637D01*
X129384637Y-88544759D01*
X129540000Y-88312241D01*
X129695363Y-88544759D01*
X129895241Y-88744637D01*
X130130273Y-88901680D01*
X130391426Y-89009853D01*
X130668665Y-89065000D01*
X130951335Y-89065000D01*
X131228574Y-89009853D01*
X131489727Y-88901680D01*
X131724759Y-88744637D01*
X131846896Y-88622500D01*
X135066385Y-88622500D01*
X135157038Y-88732962D01*
X135291614Y-88843405D01*
X135445150Y-88925472D01*
X135611746Y-88976008D01*
X135785000Y-88993072D01*
X136460000Y-88993072D01*
X136633254Y-88976008D01*
X136799850Y-88925472D01*
X136953386Y-88843405D01*
X137087962Y-88732962D01*
X137093342Y-88726406D01*
X137158815Y-88806185D01*
X137255506Y-88885537D01*
X137365820Y-88944502D01*
X137485518Y-88980812D01*
X137610000Y-88993072D01*
X137911750Y-88990000D01*
X138070500Y-88831250D01*
X138070500Y-87757000D01*
X138324500Y-87757000D01*
X138324500Y-88831250D01*
X138483250Y-88990000D01*
X138785000Y-88993072D01*
X138909482Y-88980812D01*
X139029180Y-88944502D01*
X139139494Y-88885537D01*
X139236185Y-88806185D01*
X139315537Y-88709494D01*
X139374502Y-88599180D01*
X139410812Y-88479482D01*
X139423072Y-88355000D01*
X139420000Y-87915750D01*
X139261250Y-87757000D01*
X138324500Y-87757000D01*
X138070500Y-87757000D01*
X138050500Y-87757000D01*
X138050500Y-87503000D01*
X138070500Y-87503000D01*
X138070500Y-86428750D01*
X138324500Y-86428750D01*
X138324500Y-87503000D01*
X139261250Y-87503000D01*
X139420000Y-87344250D01*
X139423072Y-86905000D01*
X139410812Y-86780518D01*
X139374502Y-86660820D01*
X139315537Y-86550506D01*
X139236185Y-86453815D01*
X139139494Y-86374463D01*
X139029180Y-86315498D01*
X138909482Y-86279188D01*
X138785000Y-86266928D01*
X138483250Y-86270000D01*
X138324500Y-86428750D01*
X138070500Y-86428750D01*
X137911750Y-86270000D01*
X137610000Y-86266928D01*
X137485518Y-86279188D01*
X137365820Y-86315498D01*
X137255506Y-86374463D01*
X137158815Y-86453815D01*
X137093342Y-86533594D01*
X137087962Y-86527038D01*
X136953386Y-86416595D01*
X136799850Y-86334528D01*
X136633254Y-86283992D01*
X136460000Y-86266928D01*
X135785000Y-86266928D01*
X135611746Y-86283992D01*
X135445150Y-86334528D01*
X135291614Y-86416595D01*
X135157038Y-86527038D01*
X135046595Y-86661614D01*
X134964528Y-86815150D01*
X134913992Y-86981746D01*
X134902099Y-87102500D01*
X132144734Y-87102500D01*
X132081680Y-86950273D01*
X131924637Y-86715241D01*
X131724759Y-86515363D01*
X131489727Y-86358320D01*
X131228574Y-86250147D01*
X130951335Y-86195000D01*
X130779802Y-86195000D01*
X131601004Y-85373798D01*
X131630001Y-85350001D01*
X131657427Y-85316582D01*
X131663255Y-85316008D01*
X131829851Y-85265472D01*
X131983387Y-85183405D01*
X132117962Y-85072962D01*
X132228405Y-84938387D01*
X132310472Y-84784851D01*
X132361008Y-84618255D01*
X132364776Y-84580000D01*
X134290178Y-84580000D01*
X134327500Y-84583676D01*
X134364822Y-84580000D01*
X134364833Y-84580000D01*
X134476486Y-84569003D01*
X134619747Y-84525546D01*
X134751776Y-84454974D01*
X134867501Y-84360001D01*
X134891304Y-84330997D01*
X135138781Y-84083520D01*
X135184998Y-84088072D01*
X136010002Y-84088072D01*
X136183256Y-84071008D01*
X136349852Y-84020472D01*
X136503387Y-83938405D01*
X136637962Y-83827962D01*
X136748405Y-83693387D01*
X136830472Y-83539852D01*
X136857728Y-83450000D01*
X137421928Y-83450000D01*
X137434188Y-83574482D01*
X137470498Y-83694180D01*
X137529463Y-83804494D01*
X137608815Y-83901185D01*
X137705506Y-83980537D01*
X137815820Y-84039502D01*
X137935518Y-84075812D01*
X138060000Y-84088072D01*
X138436750Y-84085000D01*
X138595500Y-83926250D01*
X138595500Y-82677000D01*
X138849500Y-82677000D01*
X138849500Y-83926250D01*
X139008250Y-84085000D01*
X139385000Y-84088072D01*
X139509482Y-84075812D01*
X139629180Y-84039502D01*
X139739494Y-83980537D01*
X139836185Y-83901185D01*
X139915537Y-83804494D01*
X139974502Y-83694180D01*
X140010812Y-83574482D01*
X140023072Y-83450000D01*
X140020000Y-82835750D01*
X139861250Y-82677000D01*
X138849500Y-82677000D01*
X138595500Y-82677000D01*
X137583750Y-82677000D01*
X137425000Y-82835750D01*
X137421928Y-83450000D01*
X136857728Y-83450000D01*
X136881008Y-83373256D01*
X136898072Y-83200002D01*
X136898072Y-81899998D01*
X136881008Y-81726744D01*
X136857729Y-81650000D01*
X137421928Y-81650000D01*
X137425000Y-82264250D01*
X137583750Y-82423000D01*
X138595500Y-82423000D01*
X138595500Y-81173750D01*
X138849500Y-81173750D01*
X138849500Y-82423000D01*
X139861250Y-82423000D01*
X140020000Y-82264250D01*
X140023072Y-81650000D01*
X140010812Y-81525518D01*
X139974502Y-81405820D01*
X139915537Y-81295506D01*
X139836185Y-81198815D01*
X139739494Y-81119463D01*
X139629180Y-81060498D01*
X139509482Y-81024188D01*
X139385000Y-81011928D01*
X139008250Y-81015000D01*
X138849500Y-81173750D01*
X138595500Y-81173750D01*
X138436750Y-81015000D01*
X138060000Y-81011928D01*
X137935518Y-81024188D01*
X137815820Y-81060498D01*
X137705506Y-81119463D01*
X137608815Y-81198815D01*
X137529463Y-81295506D01*
X137470498Y-81405820D01*
X137434188Y-81525518D01*
X137421928Y-81650000D01*
X136857729Y-81650000D01*
X136830472Y-81560148D01*
X136748405Y-81406613D01*
X136637962Y-81272038D01*
X136503387Y-81161595D01*
X136349852Y-81079528D01*
X136183256Y-81028992D01*
X136010002Y-81011928D01*
X135184998Y-81011928D01*
X135011744Y-81028992D01*
X134845148Y-81079528D01*
X134691613Y-81161595D01*
X134557038Y-81272038D01*
X134446595Y-81406613D01*
X134364528Y-81560148D01*
X134313992Y-81726744D01*
X134296928Y-81899998D01*
X134296928Y-82775771D01*
X134012699Y-83060000D01*
X132364776Y-83060000D01*
X132361008Y-83021745D01*
X132310472Y-82855149D01*
X132228405Y-82701613D01*
X132117962Y-82567038D01*
X131983387Y-82456595D01*
X131829851Y-82374528D01*
X131663255Y-82323992D01*
X131490001Y-82306928D01*
X130689999Y-82306928D01*
X130516745Y-82323992D01*
X130350149Y-82374528D01*
X130196613Y-82456595D01*
X130062038Y-82567038D01*
X129951595Y-82701613D01*
X129869528Y-82855149D01*
X129818992Y-83021745D01*
X129801928Y-83194999D01*
X129801928Y-84445001D01*
X129818992Y-84618255D01*
X129869528Y-84784851D01*
X129929029Y-84896169D01*
X128593886Y-86231312D01*
X128411335Y-86195000D01*
X128128665Y-86195000D01*
X127851426Y-86250147D01*
X127590273Y-86358320D01*
X127355241Y-86515363D01*
X127155363Y-86715241D01*
X127000000Y-86947759D01*
X126844637Y-86715241D01*
X126644759Y-86515363D01*
X126490000Y-86411957D01*
X126490000Y-84834554D01*
X126548405Y-84763387D01*
X126630472Y-84609851D01*
X126639527Y-84580000D01*
X126715224Y-84580000D01*
X126718992Y-84618255D01*
X126769528Y-84784851D01*
X126851595Y-84938387D01*
X126962038Y-85072962D01*
X127096613Y-85183405D01*
X127250149Y-85265472D01*
X127416745Y-85316008D01*
X127589999Y-85333072D01*
X128390001Y-85333072D01*
X128563255Y-85316008D01*
X128729851Y-85265472D01*
X128883387Y-85183405D01*
X129017962Y-85072962D01*
X129128405Y-84938387D01*
X129210472Y-84784851D01*
X129261008Y-84618255D01*
X129278072Y-84445001D01*
X129278072Y-83194999D01*
X129261008Y-83021745D01*
X129210472Y-82855149D01*
X129128405Y-82701613D01*
X129017962Y-82567038D01*
X128883387Y-82456595D01*
X128729851Y-82374528D01*
X128563255Y-82323992D01*
X128390001Y-82306928D01*
X127589999Y-82306928D01*
X127416745Y-82323992D01*
X127250149Y-82374528D01*
X127096613Y-82456595D01*
X126962038Y-82567038D01*
X126851595Y-82701613D01*
X126769528Y-82855149D01*
X126718992Y-83021745D01*
X126715224Y-83060000D01*
X126639527Y-83060000D01*
X126630472Y-83030149D01*
X126548405Y-82876613D01*
X126437962Y-82742038D01*
X126303387Y-82631595D01*
X126149851Y-82549528D01*
X125983255Y-82498992D01*
X125810001Y-82481928D01*
X125109999Y-82481928D01*
X124936745Y-82498992D01*
X124770149Y-82549528D01*
X124616613Y-82631595D01*
X124482038Y-82742038D01*
X124460000Y-82768891D01*
X124437962Y-82742038D01*
X124303387Y-82631595D01*
X124149851Y-82549528D01*
X123983255Y-82498992D01*
X123810001Y-82481928D01*
X123109999Y-82481928D01*
X122936745Y-82498992D01*
X122770149Y-82549528D01*
X122616613Y-82631595D01*
X122482038Y-82742038D01*
X122371595Y-82876613D01*
X122289528Y-83030149D01*
X122238992Y-83196745D01*
X122221928Y-83369999D01*
X122221928Y-84270001D01*
X122238992Y-84443255D01*
X122289528Y-84609851D01*
X122371595Y-84763387D01*
X122430001Y-84834555D01*
X122430000Y-86411956D01*
X122275241Y-86515363D01*
X122075363Y-86715241D01*
X121971957Y-86870000D01*
X118147322Y-86870000D01*
X118109999Y-86866324D01*
X118072676Y-86870000D01*
X118072667Y-86870000D01*
X117961014Y-86880997D01*
X117817753Y-86924454D01*
X117685724Y-86995026D01*
X117685722Y-86995027D01*
X117685723Y-86995027D01*
X117598996Y-87066201D01*
X117598992Y-87066205D01*
X117569999Y-87089999D01*
X117546205Y-87118992D01*
X115983270Y-88681928D01*
X114720000Y-88681928D01*
X114595518Y-88694188D01*
X114475820Y-88730498D01*
X114365506Y-88789463D01*
X114268815Y-88868815D01*
X114189463Y-88965506D01*
X114130498Y-89075820D01*
X114094188Y-89195518D01*
X114081928Y-89320000D01*
X113157000Y-89320000D01*
X113157000Y-80772000D01*
X144018000Y-80772000D01*
X144018000Y-100838000D01*
G37*
%TD.AperFunction*%
D16*
X124615363Y-88544759D02*
X124815241Y-88744637D01*
X125050273Y-88901680D01*
X125311426Y-89009853D01*
X125588665Y-89065000D01*
X125760199Y-89065000D01*
X125218998Y-89606201D01*
X125190000Y-89629999D01*
X125166202Y-89658997D01*
X125166201Y-89658998D01*
X125095026Y-89745724D01*
X125024454Y-89877754D01*
X124980998Y-90021015D01*
X124966324Y-90170000D01*
X124970001Y-90207332D01*
X124970000Y-94031956D01*
X124815241Y-94135363D01*
X124616643Y-94333961D01*
X124615812Y-94325518D01*
X124579502Y-94205820D01*
X124520537Y-94095506D01*
X124441185Y-93998815D01*
X124344494Y-93919463D01*
X124234180Y-93860498D01*
X124114482Y-93824188D01*
X123990000Y-93811928D01*
X123475750Y-93815000D01*
X123317000Y-93973750D01*
X123317000Y-95123000D01*
X123337000Y-95123000D01*
X123337000Y-95377000D01*
X123317000Y-95377000D01*
X123317000Y-96526250D01*
X123475750Y-96685000D01*
X123990000Y-96688072D01*
X124114482Y-96675812D01*
X124234180Y-96639502D01*
X124344494Y-96580537D01*
X124441185Y-96501185D01*
X124520537Y-96404494D01*
X124579502Y-96294180D01*
X124615812Y-96174482D01*
X124616643Y-96166039D01*
X124815241Y-96364637D01*
X125050273Y-96521680D01*
X125311426Y-96629853D01*
X125588665Y-96685000D01*
X125871335Y-96685000D01*
X126148574Y-96629853D01*
X126409727Y-96521680D01*
X126644759Y-96364637D01*
X126844637Y-96164759D01*
X127000000Y-95932241D01*
X127155363Y-96164759D01*
X127355241Y-96364637D01*
X127590273Y-96521680D01*
X127851426Y-96629853D01*
X128128665Y-96685000D01*
X128300199Y-96685000D01*
X126685199Y-98300000D01*
X123504802Y-98300000D01*
X122483803Y-97279002D01*
X122483799Y-97278997D01*
X121254802Y-96050000D01*
X121751928Y-96050000D01*
X121764188Y-96174482D01*
X121800498Y-96294180D01*
X121859463Y-96404494D01*
X121938815Y-96501185D01*
X122035506Y-96580537D01*
X122145820Y-96639502D01*
X122265518Y-96675812D01*
X122390000Y-96688072D01*
X122904250Y-96685000D01*
X123063000Y-96526250D01*
X123063000Y-95377000D01*
X121913750Y-95377000D01*
X121755000Y-95535750D01*
X121751928Y-96050000D01*
X121254802Y-96050000D01*
X119654802Y-94450000D01*
X121751928Y-94450000D01*
X121755000Y-94964250D01*
X121913750Y-95123000D01*
X123063000Y-95123000D01*
X123063000Y-93973750D01*
X122904250Y-93815000D01*
X122390000Y-93811928D01*
X122265518Y-93824188D01*
X122145820Y-93860498D01*
X122035506Y-93919463D01*
X121938815Y-93998815D01*
X121859463Y-94095506D01*
X121800498Y-94205820D01*
X121764188Y-94325518D01*
X121751928Y-94450000D01*
X119654802Y-94450000D01*
X118870000Y-93665199D01*
X118870000Y-91477322D01*
X118873676Y-91439999D01*
X118870000Y-91402676D01*
X118870000Y-91402667D01*
X118859003Y-91291014D01*
X118815546Y-91147753D01*
X118744974Y-91015724D01*
X118650001Y-90899999D01*
X118621003Y-90876201D01*
X117403804Y-89659003D01*
X117380001Y-89629999D01*
X117272789Y-89542013D01*
X118424803Y-88390000D01*
X121971957Y-88390000D01*
X122075363Y-88544759D01*
X122275241Y-88744637D01*
X122510273Y-88901680D01*
X122771426Y-89009853D01*
X123048665Y-89065000D01*
X123331335Y-89065000D01*
X123608574Y-89009853D01*
X123869727Y-88901680D01*
X124104759Y-88744637D01*
X124304637Y-88544759D01*
X124460000Y-88312241D01*
X124615363Y-88544759D01*
%TA.AperFunction,Conductor*%
D17*
G36*
X124615363Y-88544759D02*
G01*
X124815241Y-88744637D01*
X125050273Y-88901680D01*
X125311426Y-89009853D01*
X125588665Y-89065000D01*
X125760199Y-89065000D01*
X125218998Y-89606201D01*
X125190000Y-89629999D01*
X125166202Y-89658997D01*
X125166201Y-89658998D01*
X125095026Y-89745724D01*
X125024454Y-89877754D01*
X124980998Y-90021015D01*
X124966324Y-90170000D01*
X124970001Y-90207332D01*
X124970000Y-94031956D01*
X124815241Y-94135363D01*
X124616643Y-94333961D01*
X124615812Y-94325518D01*
X124579502Y-94205820D01*
X124520537Y-94095506D01*
X124441185Y-93998815D01*
X124344494Y-93919463D01*
X124234180Y-93860498D01*
X124114482Y-93824188D01*
X123990000Y-93811928D01*
X123475750Y-93815000D01*
X123317000Y-93973750D01*
X123317000Y-95123000D01*
X123337000Y-95123000D01*
X123337000Y-95377000D01*
X123317000Y-95377000D01*
X123317000Y-96526250D01*
X123475750Y-96685000D01*
X123990000Y-96688072D01*
X124114482Y-96675812D01*
X124234180Y-96639502D01*
X124344494Y-96580537D01*
X124441185Y-96501185D01*
X124520537Y-96404494D01*
X124579502Y-96294180D01*
X124615812Y-96174482D01*
X124616643Y-96166039D01*
X124815241Y-96364637D01*
X125050273Y-96521680D01*
X125311426Y-96629853D01*
X125588665Y-96685000D01*
X125871335Y-96685000D01*
X126148574Y-96629853D01*
X126409727Y-96521680D01*
X126644759Y-96364637D01*
X126844637Y-96164759D01*
X127000000Y-95932241D01*
X127155363Y-96164759D01*
X127355241Y-96364637D01*
X127590273Y-96521680D01*
X127851426Y-96629853D01*
X128128665Y-96685000D01*
X128300199Y-96685000D01*
X126685199Y-98300000D01*
X123504802Y-98300000D01*
X122483803Y-97279002D01*
X122483799Y-97278997D01*
X121254802Y-96050000D01*
X121751928Y-96050000D01*
X121764188Y-96174482D01*
X121800498Y-96294180D01*
X121859463Y-96404494D01*
X121938815Y-96501185D01*
X122035506Y-96580537D01*
X122145820Y-96639502D01*
X122265518Y-96675812D01*
X122390000Y-96688072D01*
X122904250Y-96685000D01*
X123063000Y-96526250D01*
X123063000Y-95377000D01*
X121913750Y-95377000D01*
X121755000Y-95535750D01*
X121751928Y-96050000D01*
X121254802Y-96050000D01*
X119654802Y-94450000D01*
X121751928Y-94450000D01*
X121755000Y-94964250D01*
X121913750Y-95123000D01*
X123063000Y-95123000D01*
X123063000Y-93973750D01*
X122904250Y-93815000D01*
X122390000Y-93811928D01*
X122265518Y-93824188D01*
X122145820Y-93860498D01*
X122035506Y-93919463D01*
X121938815Y-93998815D01*
X121859463Y-94095506D01*
X121800498Y-94205820D01*
X121764188Y-94325518D01*
X121751928Y-94450000D01*
X119654802Y-94450000D01*
X118870000Y-93665199D01*
X118870000Y-91477322D01*
X118873676Y-91439999D01*
X118870000Y-91402676D01*
X118870000Y-91402667D01*
X118859003Y-91291014D01*
X118815546Y-91147753D01*
X118744974Y-91015724D01*
X118650001Y-90899999D01*
X118621003Y-90876201D01*
X117403804Y-89659003D01*
X117380001Y-89629999D01*
X117272789Y-89542013D01*
X118424803Y-88390000D01*
X121971957Y-88390000D01*
X122075363Y-88544759D01*
X122275241Y-88744637D01*
X122510273Y-88901680D01*
X122771426Y-89009853D01*
X123048665Y-89065000D01*
X123331335Y-89065000D01*
X123608574Y-89009853D01*
X123869727Y-88901680D01*
X124104759Y-88744637D01*
X124304637Y-88544759D01*
X124460000Y-88312241D01*
X124615363Y-88544759D01*
G37*
%TD.AperFunction*%
%TD*%
M02*
